# xmcd
#
# Track frame offsets: 
#        150
#        29414
#        52711
#        73241
#        96201
#        122083
#        143307
#        155737
#        178066
#        193842
#        208028
#        227396
#        251601
#        274473
#        303907
#
# Disc length: 4454 seconds
#
# Revision: 0
# Processed by: cddbd v1.5.2PL0 Copyright (c) Steve Scherf et al.
# Submitted via: ExactAudioCopy v0.99pb4
#
DISCID=d411640f
DTITLE=조규찬 - 달에서 온 편지 CD1
DYEAR=2009
DGENRE=Ballad
TTITLE0=비둘기야 비둘기야
TTITLE1=사막을 걸어온 네온사인
TTITLE2=Time After Time
TTITLE3=추억 #1
TTITLE4=말해줄께
TTITLE5=Crazy for you
TTITLE6=Long Trip
TTITLE7=좋은 날
TTITLE8=빨강머리 작은 새
TTITLE9=Ben
TTITLE10=잠이 늘었어
TTITLE11=서울하늘
TTITLE12=믿어지지 않는 얘기
TTITLE13=The Water is Wide
TTITLE14=무지개
EXTD=
EXTT0=
EXTT1=
EXTT2=
EXTT3=
EXTT4=
EXTT5=
EXTT6=
EXTT7=
EXTT8=
EXTT9=
EXTT10=
EXTT11=
EXTT12=
EXTT13=
EXTT14=
PLAYORDER=
